<svg xmlns="http://www.w3.org/2000/svg" xmlns:xlink="http://www.w3.org/1999/xlink" viewBox="0 0 66 56" fill="#fff" fill-rule="evenodd" stroke="#000" stroke-linecap="round" stroke-linejoin="round"><use xlink:href="#A" x=".5" y=".5"/><symbol id="A" overflow="visible"><g stroke="none" fill-rule="nonzero"><path d="M19.428 41.546H10.53C4.583 40.066 0 35.396 0 29.186c0-5.135 3.307-9.835 7.804-11.605-.058-.55-.087-1.073-.087-1.625C7.717 7.136 14.883 0 23.702 0c4.845 0 9.4 2.205 12.446 5.976 1.8-.9 3.8-1.393 5.83-1.364 6.992 0 13.026 6.2 13.287 13.113L31.41 7.892l-11.982 7.166z" fill="#59b4d9"/><path d="M63.99 48.132l-32.86 6.266.145-23.093L64 37.368zm-32.754-37.25l32.754 12.33v12.33l-32.696-6.963" fill="#959595"/><path d="M31.294 28.578l-8.907 4.15v-16.45l8.85-5.396M62.51 34.119l-29.708-6.8V12.592L62.51 23.559zm-16.334-5.28l2.96.812v-9.632l-2.96-1.044zM43.19 18.046l-2.96-1.072v10.26l2.96.84zm8.936 12.417l2.93.783.058-9.168-2.988-.986zm-17.844-4.729l2.96.754V15.986L34.282 15v10.734zm26.75-1.654l-2.96-1.044v8.965l2.96.812zm-28.228 9.66V52.8l29.708-5.454v-9.012zm1.48 16.827v-14.68l2.96.377v13.8zm8.907-1.48l-2.96.55V36.672l2.96.435c0-.03 0 11.982 0 11.982zm2.988-.435V37.397l2.96.377v10.33zm8.907-1.567l-2.96.493V38.12l2.96.435zm6.034-.957l-3.075.522v-7.776l2.872.348z" fill="#b3b4b5"/><path d="M25.404 28.287l-1.48.87V17.466l1.48-.812v11.634zm2.96-13.316l-1.48 1.015v11.373l1.48-.812z" fill="#959595"/><path d="M22.387 49.118l-.058-13.52 8.936-4.323.058 23.15" fill="#b3b4b5"/><path d="M25.2 49.06l-1.364-.696V36.962l1.364-.6zm3.2-14.13l-1.48.638-.058 14.4 1.538.783z" fill="#959595"/><path d="M61.002 25.038L34.31 16.074l.03-1.16 26.662 9.168zm-.087 14.216L34.33 35.918v1.16l26.604 3.133zM28.365 16.48v-1.45l-4.323 2.38-.058 1.218zm-4.497 21.354l4.526-1.654v-1.248l-4.555 2.03z" fill="#7a7a7a"/><path d="M63.99 23.268v24.863l-32.667 6.267L56.07 20.28z" opacity=".2"/></g></symbol></svg>