<svg id="Layer_1" data-name="Layer 1" xmlns="http://www.w3.org/2000/svg" viewBox="0 0 90 91"><title>Artboard 2</title><path d="M78,69.127V25.477L57.523,5H16.1A2.1,2.1,0,0,0,14,7.094h0V69.127Z" fill="#f0feff" stroke="#52306c" stroke-linejoin="round" stroke-width="2"/><path d="M78,27.211H59.618a2.1,2.1,0,0,1-2.1-2.095h0V6.735L78,25.477v1.735h0Z" stroke="#000" stroke-linejoin="round" stroke-width="1.397" opacity="0.12" style="isolation:isolate"/><path d="M78,25.477H59.618a2.1,2.1,0,0,1-2.1-2.095h0V5Z" fill="#f7feff" stroke="#52306c" stroke-linejoin="round" stroke-width="1.397"/><path d="M14,69.127V83.6A1.4,1.4,0,0,0,15.4,85H76.6A1.4,1.4,0,0,0,78,83.606V69.127Z" fill="#caf3fc" stroke="#52306c" stroke-linejoin="round" stroke-width="2"/><path d="M25.025,75.253c1.51,0,2.119.93,2.119,2.311s-.619,2.355-2.119,2.355H23.131V75.253Zm-.667,3.705h.462c.611,0,1.069-.235,1.069-1.363,0-.731-.2-1.381-1.069-1.381h-.462Z" fill="#52306c"/><path d="M28.107,77.342a1.977,1.977,0,0,1,2.123-2.171,1.975,1.975,0,0,1,2.115,2.171v.513A1.962,1.962,0,0,1,30.227,80a1.962,1.962,0,0,1-2.119-2.146Zm1.251.52c0,.766.345,1.155.868,1.155s.868-.39.868-1.155v-.536c0-.766-.345-1.166-.868-1.166s-.868.4-.868,1.166Z" fill="#52306c"/><path d="M34.6,77.831c0,.779.311,1.165.824,1.165a.748.748,0,0,0,.758-.831h1.166v.161A1.74,1.74,0,0,1,35.4,80a1.942,1.942,0,0,1-2.058-2.178v-.468A1.948,1.948,0,0,1,35.4,75.171a1.748,1.748,0,0,1,1.941,1.7v.153H36.18a.767.767,0,0,0-.766-.851c-.506,0-.816.4-.816,1.179Z" fill="#52306c"/><path d="M41,77.284l1.65,2.635H41.217l-1.111-1.832-.386.465v1.367H38.492V75.253H39.72v1.936h.055L41.3,75.253h1.3Z" fill="#52306c"/><path d="M46.766,79.919h-3.2V75.253h3.2v.961H44.783v.923h1.855v.882H44.783v.939h1.982Z" fill="#52306c"/><path d="M51.8,76.806a1.428,1.428,0,0,1-.83,1.318l.926,1.795h-1.35l-.779-1.631h-.551v1.631h-1.2V75.253h2.027C51.213,75.253,51.8,75.9,51.8,76.806Zm-1.951.635a.61.61,0,0,0,.69-.632.629.629,0,0,0-.684-.653h-.64V77.44Z" fill="#52306c"/><path d="M52.934,79.919V75.253h3.175v.975H54.16v1.039h1.768v.939H54.16v1.713Z" fill="#52306c"/><path d="M57.176,79.919V75.253H58.4v4.666Z" fill="#52306c"/><path d="M62.793,79.919H59.744V75.253h1.228V78.9h1.821Z" fill="#52306c"/><path d="M66.988,79.919h-3.2V75.253h3.2v.961H65.006v.923h1.855v.882H65.006v.939h1.982Z" fill="#52306c"/><path d="M61.568,37.182a5.162,5.162,0,0,0-3.919-.364A5.379,5.379,0,0,0,55.53,33.4l-.423-.34-.355.411a4.612,4.612,0,0,0-.828,3.25,4.236,4.236,0,0,0,.792,2.183,6.008,6.008,0,0,1-1.141.515,7.406,7.406,0,0,1-2.347.394H29.068l-.048.511A9.8,9.8,0,0,0,29.8,45.3l.3.618.034.058C32.221,49.509,35.88,51,39.868,51c7.719,0,14.086-3.448,17.01-10.732,1.954.1,3.953-.476,4.909-2.342l.244-.477Z" fill="#20c2ef"/><polygon points="49.519 36.363 46.142 36.363 46.142 29.608 42.089 29.608 42.089 32.986 35.333 32.986 35.333 36.363 31.956 36.363 31.956 39.816 49.519 39.816 49.519 36.363" fill="#20c2ef"/></svg>